<?xml version="1.0" encoding="UTF-8"?>
<svg width="500px" height="412px" viewBox="0 0 500 412" version="1.1" xmlns="http://www.w3.org/2000/svg" xmlns:xlink="http://www.w3.org/1999/xlink">
    <title>76F86B82-DD46-47CE-B59D-650B7481C56A</title>
    <g id="Page-1" stroke="none" stroke-width="1" fill="none" fill-rule="evenodd">
        <g id="Illustration-" transform="translate(-42.000000, -1321.000000)" fill-rule="nonzero">
            <g id="Authentication-rafiki" transform="translate(42.000000, 1321.000000)">
                <g id="freepik--Shadows--inject-203" transform="translate(0.000000, 6.679389)">
                    <g id="freepik--Shadow--inject-214--inject-203" transform="translate(52.715987, 376.998145)" fill="#F5F5F5">
                        <ellipse id="freepik--path--inject-214--inject-203" cx="223.15082" cy="13.1334863" rx="223.024291" ry="13.022654"></ellipse>
                    </g>
                    <g id="freepik--background-simple--inject-87" transform="translate(243.521233, 177.827771) rotate(180.000000) translate(-243.521233, -177.827771) translate(0.677722, 0.346855)">
                        <path d="M78.7664298,85.8044114 C-28.2457389,148.068482 -34.646987,358.292963 117.563559,354.269661 C185.625525,352.466111 205.511141,281.309155 266.935291,256.336934 C324.602187,232.87692 374.323185,279.921809 432.532796,226.647738 C501.12356,163.939716 510.975916,10.5686589 409.029083,0.316174814 C364.637819,-4.15107805 347.521438,40.0358797 308.738224,49.8166662 C230.114199,69.6557085 158.281063,39.5641822 78.7664298,85.8044114 Z" id="Path" fill="#388CE0"></path>
                        <path d="M78.7664298,85.8044114 C-28.2457389,148.068482 -34.646987,358.292963 117.563559,354.269661 C185.625525,352.466111 205.511141,281.309155 266.935291,256.336934 C324.602187,232.87692 374.323185,279.921809 432.532796,226.647738 C501.12356,163.939716 510.975916,10.5686589 409.029083,0.316174814 C364.637819,-4.15107805 347.521438,40.0358797 308.738224,49.8166662 C230.114199,69.6557085 158.281063,39.5641822 78.7664298,85.8044114 Z" id="Path" fill="#FFFFFF" opacity="0.9"></path>
                    </g>
                </g>
                <g id="freepik--verification-code--inject-203" transform="translate(201.335878, 0.000000)">
                    <path d="M0.483273462,14.4181818 C0.511556884,14.7683114 0.557644882,15.1167094 0.621351594,15.4619709 C1.05548556,17.7216719 2.19349152,19.7782466 3.8661877,21.3259542 C5.76149366,23.1347627 8.25429104,24.1519095 10.8506399,24.1758501 L108.069151,24.1758501 C110.361424,24.2229956 112.576458,23.3309954 114.218087,21.6996576 C115.859715,20.0683199 116.790733,17.8339889 116.802593,15.4971548 C116.81971,15.1494438 116.81971,14.8010767 116.802593,14.4533657 C116.2418,9.0205705 111.805119,4.86026635 106.446733,4.7426093 L9.2052088,4.7426093 C6.73928674,4.69179466 4.37076744,5.72312499 2.70205029,7.574296 C1.03333313,9.42546701 0.225231081,11.9180828 0.483273462,14.4181818 L0.483273462,14.4181818 Z" id="Path" fill="#388CE0"></path>
                    <path d="M0.483273462,14.4181818 C0.511556884,14.7683114 0.557644882,15.1167094 0.621351594,15.4619709 C1.05548556,17.7216719 2.19349152,19.7782466 3.8661877,21.3259542 C5.76149366,23.1347627 8.25429104,24.1519095 10.8506399,24.1758501 L108.069151,24.1758501 C110.361424,24.2229956 112.576458,23.3309954 114.218087,21.6996576 C115.859715,20.0683199 116.790733,17.8339889 116.802593,15.4971548 C116.81971,15.1494438 116.81971,14.8010767 116.802593,14.4533657 C116.2418,9.0205705 111.805119,4.86026635 106.446733,4.7426093 L9.2052088,4.7426093 C6.73928674,4.69179466 4.37076744,5.72312499 2.70205029,7.574296 C1.03333313,9.42546701 0.225231081,11.9180828 0.483273462,14.4181818 L0.483273462,14.4181818 Z" id="Path" fill="#FFFFFF" opacity="0.8"></path>
                    <path d="M116.802593,15.426787 C116.802914,15.740863 116.779834,16.0545105 116.733554,16.3650243 C116.024819,11.0620919 111.627705,7.07832156 106.377694,6.98265094 L3.01470588,7.21721027 C4.66967855,5.57645473 6.89670236,4.67356352 9.2052088,4.7074254 L106.42372,4.7074254 C111.782106,4.82508245 116.218787,8.9853866 116.77958,14.4181818 C116.803233,14.7538072 116.810913,15.0904037 116.802593,15.426787 Z" id="Path" fill="#388CE0"></path>
                    <path d="M116.802593,15.426787 C116.802914,15.740863 116.779834,16.0545105 116.733554,16.3650243 C116.024819,11.0620919 111.627705,7.07832156 106.377694,6.98265094 L3.01470588,7.21721027 C4.66967855,5.57645473 6.89670236,4.67356352 9.2052088,4.7074254 L106.42372,4.7074254 C111.782106,4.82508245 116.218787,8.9853866 116.77958,14.4181818 C116.803233,14.7538072 116.810913,15.0904037 116.802593,15.426787 Z" id="Path" fill="#FFFFFF" opacity="0.5"></path>
                    <polygon id="Path" fill="#388CE0" points="100.106646 9.39861207 100.52088 14.0897988 104.847328 12.4478834 105.871408 14.7934768 101.452907 16.2946565 104.628705 20.2704372 102.638078 21.759889 99.5428267 17.6316447 97.2415245 21.759889 95.0667939 20.2704372 97.5176807 16.2946565 92.9150763 14.7934768 93.5364279 12.4478834 98.1965649 14.0311589 97.7823305 9.33997224"></polygon>
                    <polygon id="Path" fill="#388CE0" points="73.4690727 9.39861207 73.8833071 14.0897988 78.2097553 12.4478834 79.2453413 14.7934768 74.7923215 16.3298404 77.9681185 20.3056211 75.9889987 21.7950729 72.8937472 17.6668286 70.592445 21.7950729 68.4062079 20.3056211 70.8686013 16.3298404 66.2659969 14.8286607 66.8873485 12.4830673 71.5474854 14.0663428 71.1447575 9.37515614"></polygon>
                    <polygon id="Path" fill="#388CE0" points="46.8890323 9.39861207 47.2917602 14.0897988 51.6182084 12.4478834 52.6537943 14.7934768 48.2237876 16.2946565 51.3995846 20.2704372 49.4779973 21.7950729 46.3827458 17.6668286 44.0814436 21.7950729 41.9067131 20.3056211 44.3575999 16.3298404 39.7549955 14.8286607 40.3878536 12.4830673 44.990458 14.0663428 44.5877301 9.37515614"></polygon>
                    <polygon id="Path" fill="#388CE0" points="20.2974854 9.39861207 20.7002133 14.0897988 25.0381679 12.4478834 26.0622474 14.7934768 21.6322407 16.2946565 24.8195442 20.2704372 22.8289178 21.759889 19.7336664 17.6316447 17.4323642 21.759889 15.2576336 20.2704372 17.7085204 16.2946565 13.105916 14.7934768 13.7272676 12.4478834 18.329872 14.0311589 17.9271441 9.33997224"></polygon>
                    <rect id="Rectangle" fill="#388CE0" x="80.2118882" y="0.110062457" width="4.53356533" height="1.17279667"></rect>
                    <rect id="Rectangle" fill="#388CE0" x="89.44011" y="0.110062457" width="14.7858666" height="1.17279667"></rect>
                </g>
                <g id="freepik--face-recognition--inject-203" transform="translate(384.541985, 151.717557)">
                    <path d="M55.2475411,7.16522189 L50.5193042,60.8584552 C50.1420572,64.4037682 47.1713458,67.1184406 43.5830153,67.1970053 L6.04613183,67.1970053 C4.403043,67.2057734 2.83380956,66.5196294 1.73073013,65.3100204 C0.627650692,64.1004115 0.0949831499,62.4816641 0.265891075,60.8584552 L4.99412801,7.15373916 C5.35658356,3.60105357 8.33592011,0.878499446 11.9304169,0.815182305 L49.4673004,0.815182305 C51.1126269,0.806063521 52.6839317,1.49375531 53.7874161,2.70600053 C54.8909006,3.91824574 55.4219746,5.54014574 55.2475411,7.16522189 L55.2475411,7.16522189 Z" id="Path" fill="#388CE0" opacity="0.8"></path>
                    <path d="M55.2475411,7.16522189 L50.5193042,60.8584552 C50.1420572,64.4037682 47.1713458,67.1184406 43.5830153,67.1970053 L6.04613183,67.1970053 C4.403043,67.2057734 2.83380956,66.5196294 1.73073013,65.3100204 C0.627650692,64.1004115 0.0949831499,62.4816641 0.265891075,60.8584552 L4.99412801,7.15373916 C5.35658356,3.60105357 8.33592011,0.878499446 11.9304169,0.815182305 L49.4673004,0.815182305 C51.1126269,0.806063521 52.6839317,1.49375531 53.7874161,2.70600053 C54.8909006,3.91824574 55.4219746,5.54014574 55.2475411,7.16522189 L55.2475411,7.16522189 Z" id="Path" fill="#FFFFFF" opacity="0.8"></path>
                    <path d="M8.41603053,15.823208 L8.3119862,15.823208 C7.67714732,15.7684572 7.20661655,15.213781 7.25998238,14.5830638 L7.69928068,9.66845646 C7.75327157,9.0749559 8.25538008,8.62111034 8.85532883,8.62351865 L14.0806665,8.62351865 C14.7191342,8.62351865 15.2367146,9.13762749 15.2367146,9.77180101 C15.2367146,10.4059745 14.7191342,10.9200737 14.0806665,10.9200737 L9.91889313,10.9200737 L9.57207868,14.7782702 C9.51808779,15.3717707 9.01597929,15.8256163 8.41603053,15.823208 Z" id="Path" fill="#388CE0"></path>
                    <path d="M50.4499413,15.8231983 L50.3458969,15.8231983 C49.7110581,15.7684572 49.2405273,15.213781 49.2938931,14.5830638 L49.6175866,10.9200737 L45.6639019,10.9200737 C45.0254342,10.9200737 44.5078538,10.4059745 44.5078538,9.77180101 C44.5078538,9.13762749 45.0254342,8.62351879 45.6639019,8.62351879 L50.8661186,8.62351879 C51.19163,8.6222159 51.5026147,8.7572745 51.7226722,8.99552393 C51.9427297,9.23377336 52.0514657,9.55313317 52.0221668,9.87514556 L51.5828685,14.7782702 C51.5297407,15.3630621 51.0410101,15.8138311 50.4499413,15.8231983 L50.4499413,15.8231983 Z" id="Path" fill="#388CE0"></path>
                    <path d="M10.4044334,52.8779596 L5.17909571,52.8779596 C4.85867956,52.8769358 4.55306302,52.743868 4.33518056,52.5105124 C4.11660255,52.2741253 4.0076055,51.9576614 4.03460804,51.6378251 L4.46234586,46.7232178 C4.51661573,46.0890443 5.0781904,45.6186437 5.71665809,45.6725484 C6.35512577,45.7264531 6.8287118,46.2842507 6.77444216,46.9184241 L6.45074868,50.5814142 L10.4044334,50.5814142 C11.0429011,50.5814142 11.5604815,51.0955134 11.5604815,51.7296869 C11.5604815,52.3638604 11.0429011,52.8779596 10.4044334,52.8779596 L10.4044334,52.8779596 Z" id="Path" fill="#388CE0"></path>
                    <path d="M47.178325,52.8779692 L41.9645479,52.8779692 C41.3260801,52.8779692 40.8084997,52.3638604 40.8084997,51.7296869 C40.8084997,51.0955134 41.3260801,50.5814142 41.9645479,50.5814142 L46.1263212,50.5814142 L46.4615752,46.7232178 C46.516687,46.0926487 47.0751191,45.6252827 47.7101072,45.6782896 C48.344946,45.7330307 48.8154768,46.2877069 48.762111,46.9184241 L48.3343732,51.8330314 C48.2803823,52.426532 47.7782738,52.8803776 47.178325,52.8779692 L47.178325,52.8779692 Z" id="Path" fill="#388CE0"></path>
                    <ellipse id="Oval" fill="#FFFFFF" transform="translate(28.467732, 30.590707) rotate(-75.540000) translate(-28.467732, -30.590707) " cx="28.4677324" cy="30.5907073" rx="18.8051778" ry="15.2072453"></ellipse>
                    <polygon id="Path" fill="#FFFFFF" points="33.0051747 59.1704942 18.0343511 59.1704942 19.3406856 44.3003623 34.3115091 44.3003623"></polygon>
                    <path d="M50.5193042,60.8584552 C50.1420572,64.4037682 47.1713458,67.1184406 43.5830153,67.1970053 L6.04613183,67.1970053 C4.403043,67.2057734 2.83380956,66.5196294 1.73073013,65.3100204 C0.627650692,64.1004115 0.0949831499,62.4816641 0.265891075,60.8584552 C0.265891075,60.8584552 17.5141295,55.4386078 19.6412581,55.4386078 L32.9704932,55.4386078 L50.5193042,60.8584552 Z" id="Path" fill="#FFFFFF"></path>
                    <polygon id="Rectangle" fill="#388CE0" transform="translate(57.129053, 33.449663) rotate(-85.290000) translate(-57.129053, -33.449663) " points="46.5469184 32.8658017 67.7105511 32.8775287 67.7111875 34.0335244 46.5475547 34.0217974"></polygon>
                    <polygon id="Rectangle" fill="#388CE0" transform="translate(59.048099, 15.324049) rotate(-85.290000) translate(-59.048099, -15.324049) " points="56.9693121 14.7448998 61.1262492 14.7472032 61.1268855 15.9031989 56.9699484 15.9008955"></polygon>
                </g>
                <g id="freepik--Verified--inject-203" transform="translate(38.167939, 118.320611)">
                    <rect id="Rectangle" fill="#388CE0" x="32.5829501" y="49.6002237" width="4.57010917" height="1.15161885"></rect>
                    <rect id="Rectangle" fill="#388CE0" x="41.8855582" y="49.6002237" width="14.9050515" height="1.15161885"></rect>
                    <path d="M84.0720735,29.94209 L81.1838573,62.7632272 C80.8733506,65.7652115 78.353683,68.0641328 75.3146308,68.1182548 C73.9167928,68.1427926 72.5757043,67.5699101 71.6325115,66.5453371 C70.6893187,65.5207641 70.2349343,64.1432574 70.3849445,62.7632272 L73.2499622,29.94209 C73.7895598,24.9902837 72.1617401,20.0468024 68.7801265,16.3677677 C65.3985129,12.6887329 60.5886427,10.6283136 55.5726871,10.7100553 L43.7878371,10.7100553 C32.8803057,10.9149659 23.8412981,19.1677368 22.7235776,29.94209 L21.5636514,43.3469334 L10.7763379,43.3469334 L11.9362641,29.94209 C13.3861718,13.4278758 28.1056351,9.64599928e-13 44.7273773,9.64599928e-13 L56.5586244,9.64599928e-13 C64.36744,-0.12789161 71.8554982,3.08007231 77.1191441,8.80834572 C82.38279,14.5366191 84.9150188,22.2334434 84.0720735,29.94209 L84.0720735,29.94209 Z" id="Path" fill="#388CE0"></path>
                    <g id="Group" opacity="0.5" transform="translate(10.613948, 0.000000)" fill="#FFFFFF">
                        <path d="M73.4581253,29.94209 L70.5699091,62.7632272 C70.2594024,65.7652115 67.7397348,68.0641328 64.7006826,68.1182548 C63.3028446,68.1427926 61.961756,67.5699101 61.0185633,66.5453371 C60.0753705,65.5207641 59.6209861,64.1432574 59.7709963,62.7632272 L62.636014,29.94209 C63.1756115,24.9902837 61.5477919,20.0468024 58.1661783,16.3677677 C54.7845647,12.6887329 49.9746945,10.6283136 44.9587389,10.7100553 L33.1738889,10.7100553 C22.2663575,10.9149659 13.2273499,19.1677368 12.1096294,29.94209 L10.9497032,43.3469334 L0.162389666,43.3469334 L1.32231585,29.94209 C2.77222358,13.4278758 17.4916869,8.67361738e-19 34.1134291,8.67361738e-19 L45.9446762,8.67361738e-19 C53.7534918,-0.12789161 61.24155,3.08007231 66.5051959,8.80834572 C71.7688418,14.5366191 74.3010706,22.2334434 73.4581253,29.94209 L73.4581253,29.94209 Z" id="Path"></path>
                    </g>
                    <path d="M84.849224,61.5655436 L79.223582,125.526454 C78.8008824,129.631211 75.3522784,132.77309 71.1968928,132.839234 L6.77459254,132.839234 C4.86581719,132.873551 3.03434387,132.0913 1.74684098,130.691802 C0.459338085,129.292304 -0.159860282,127.410708 0.0470206636,125.526454 L5.68426192,61.5655436 C5.94720408,58.9789889 7.43842128,56.672603 9.69760652,55.358318 C10.906819,54.6232893 12.293232,54.2254617 13.7109511,54.2065941 L78.1216522,54.2065941 C79.4376065,54.1994959 80.7286503,54.5628715 81.8450152,55.2546723 C83.9703891,56.6228072 85.1337221,59.0665936 84.849224,61.5655436 L84.849224,61.5655436 Z" id="Path" fill="#388CE0"></path>
                    <path d="M17.8634869,89.5038168 L34.6012217,115.081271 L89.8021088,60.2757305 C89.9784286,60.0657564 89.9736743,59.7593561 89.7909236,59.554874 C89.6081729,59.350392 89.3023202,59.3092501 89.0713554,59.4580811 L36.4687029,100.398131 L26.5281355,84.4942748 L17.8634869,89.5038168 Z" id="Path" fill="#FFFFFF"></path>
                </g>
                <g id="freepik--Character--inject-203" transform="translate(153.625954, 49.618321)">
                    <path d="M151.855458,72.0128549 L152.246166,72.4841282 L152.774772,73.0933351 C153.153989,73.4956415 153.521714,73.9209369 153.923914,74.3117489 C154.716822,75.1393508 155.578679,75.9439637 156.452027,76.760071 C158.197165,78.3699102 160.0269,79.8855014 161.933436,81.3003867 C163.875486,82.7486899 165.920959,84.070554 167.966432,85.3809236 C169.115575,86.001625 170.057871,86.6568098 171.138065,87.2545222 L173.631704,88.6338586 C173.994153,88.7936793 174.401892,88.8181502 174.780846,88.7028254 C175.585245,88.4614416 180.204797,83.8866425 181.675699,82.1854609 C184.939263,78.4497581 189.880575,73.530125 192.546585,69.3461379 L195.522863,73.4496637 C193.641551,78.575809 191.144966,83.4545107 188.087913,87.9786738 C186.444017,90.4245426 184.472046,92.6329624 182.227288,94.5420162 C180.87977,95.6775147 179.358912,96.5894955 177.72265,97.2432167 C175.648533,98.0711809 173.370614,98.2436748 171.195522,97.7374789 C170.633142,97.6004129 170.083411,97.4158386 169.552249,97.1857443 L168.518021,96.73746 L166.65641,95.8868692 C165.403845,95.3351347 164.197246,94.6684554 162.979155,94.0592485 C160.54373,92.7593327 158.180678,91.3280794 155.900439,89.7718112 C153.601817,88.1906294 151.395677,86.4789786 149.292871,84.6452775 C148.201186,83.6912365 147.224415,82.725701 146.224661,81.6797042 C145.73053,81.1624531 145.224907,80.622213 144.742268,80.058984 L144.029799,79.1854042 C143.765497,78.8635591 143.570142,78.6221752 143.213908,78.127913 L151.855458,72.0128549 Z" id="Path" fill="#FFB573"></path>
                    <path d="M192.075437,69.9783337 L197.407457,58.5758194 L202.498157,67.7024286 C202.498157,67.7024286 199.154153,73.4496637 195.522863,73.4496637 L192.075437,69.9783337 Z" id="Path" fill="#FFB573"></path>
                    <polygon id="Path" fill="#FFB573" points="203.451945 53.8400978 208.829931 60.7597687 202.544123 67.6909342 197.453422 58.5758194"></polygon>
                    <path d="M201.578843,70.8404248 L210.048021,70.8404248 C210.542796,70.8367754 210.9547,70.4595096 211.00181,69.9668392 L212.759997,49.6561106 C212.785998,49.3875679 212.69711,49.120569 212.515345,48.9212313 C212.33358,48.7218937 212.075934,48.6088574 211.806209,48.6101035 L203.348522,48.6101035 C202.849725,48.6143197 202.436284,48.997975 202.394734,49.4951881 L200.613564,69.7944222 C200.591014,70.0641286 200.682668,70.3309198 200.866194,70.5297928 C201.049721,70.7286659 201.308269,70.8413605 201.578843,70.8404248 L201.578843,70.8404248 Z" id="Path" fill="#388CE0"></path>
                    <polygon id="Path" fill="#FFFFFF" opacity="0.3" points="201.670775 68.8058978 210.151444 68.8058978 211.737261 50.6561295 203.256591 50.6561295"></polygon>
                    <path d="M201.119186,66.2311365 L201.119186,66.2311365 L202.624563,65.461007 C203.390863,65.0713357 204.098735,64.5760807 204.727493,63.9897148 L205.003287,62.9896959 C204.673469,62.4429609 204.024593,62.1768046 203.405979,62.3345111 L202.153414,62.6793452 L195.936555,63.1506185 L195.787166,65.7713577 L197.602811,68.5760084 L198.223348,68.5760084 C199.638176,68.6261414 200.873613,67.6257608 201.119186,66.2311365 L201.119186,66.2311365 Z" id="Path" fill="#FFB573"></path>
                    <path d="M141.007555,60.9206913 C145.316839,60.1390673 175.711651,86.4958872 175.711651,86.4958872 L166.702376,99.7145278 C166.702376,99.7145278 133.469182,76.5646651 134.526393,70.9783526 C135.54913,65.1046784 134.733239,62.0701383 141.007555,60.9206913 Z" id="Path" fill="#263238"></path>
                    <path d="M144.84569,69.3461379 L144.512439,83.1395019 C147.959866,85.8177135 160.416568,95.3696181 160.416568,95.3696181 L144.84569,69.3461379 Z" id="Path" fill="#000000" opacity="0.2"></path>
                    <polygon id="Path" fill="#FFB573" points="120.748177 334.845407 130.941069 335.845426 134.18165 312.201301 123.977267 311.201282"></polygon>
                    <polygon id="Path" fill="#FFB573" points="20.393585 196.107154 17.7850321 206.038376 39.8370718 215.544303 44.410658 205.463652"></polygon>
                    <path d="M138.238122,337.93742 C139.11532,338.045259 140.003056,337.850636 140.754744,337.385685 C141.084033,337.098903 141.255123,336.671064 141.214401,336.236238 C141.213848,335.96278 141.063984,335.711472 140.823693,335.581053 C139.59411,334.845407 135.434215,336.822456 134.963067,337.040851 C134.870742,337.084099 134.815547,337.180716 134.82517,337.282235 C134.838397,337.386348 134.917364,337.469982 135.020524,337.489135 C136.077166,337.736291 137.154177,337.886343 138.238122,337.93742 Z M140.088241,335.87991 C140.248349,335.867731 140.408436,335.90376 140.547898,335.98336 C140.64652,336.034683 140.7085,336.136533 140.708778,336.247733 C140.733705,336.539193 140.618508,336.825129 140.39851,337.017862 C139.766482,337.558102 138.100225,337.60408 135.801941,337.16729 C137.157287,336.490221 138.618766,336.050883 140.122716,335.868415 L140.088241,335.87991 Z" id="Shape" fill="#388CE0"></path>
                    <path d="M135.06649,337.443157 L135.158421,337.443157 C136.399495,336.925906 138.893134,334.787935 138.732254,333.615499 C138.639793,333.195668 138.265681,332.898217 137.835923,332.902842 C137.351635,332.812862 136.852206,332.938802 136.468443,333.247676 C135.14693,334.270684 134.836661,337.040851 134.813679,337.144301 C134.791548,337.229314 134.813079,337.31977 134.871136,337.385685 C134.925321,337.431387 134.996197,337.452239 135.06649,337.443157 L135.06649,337.443157 Z M137.606094,333.339632 L137.743991,333.339632 C138.192157,333.408598 138.21514,333.581016 138.21514,333.638488 C138.318562,334.339651 136.617832,336.040832 135.342284,336.719006 C135.464457,335.553999 135.955671,334.458541 136.744238,333.59251 C136.99982,333.407927 137.31699,333.329644 137.629077,333.374115 L137.606094,333.339632 Z" id="Shape" fill="#388CE0"></path>
                    <path d="M130.435447,331.730406 L121.242309,332.121218 C120.832059,332.125025 120.49041,332.437049 120.4494,332.845369 L118.243047,345.684693 C118.218023,346.125744 118.370299,346.558501 118.665981,346.886644 C118.961664,347.214788 119.376217,347.411087 119.817372,347.431852 L120.001235,347.431852 C124.011741,347.224952 125.9423,346.926095 131.021509,346.753678 C134.135685,346.650228 143.662074,347.776686 147.9139,346.811151 C152.165726,345.845615 151.361327,341.627145 149.534191,341.661628 C143.6276,341.776573 136.813186,337.925925 133.446199,333.420093 C132.860137,333.040775 131.078966,331.695922 130.435447,331.730406 Z" id="Path" fill="#263238"></path>
                    <path d="M22.4735325,207.337251 L27.1620328,199.371583 C27.3822434,199.022001 27.2972425,198.561874 26.9666786,198.314092 L17.4058151,189.497833 C16.6668789,188.976227 15.6468732,189.139471 15.1075306,189.865656 L15.0041078,190.026579 C13.0046003,193.47492 12.2116922,195.291046 9.60313928,199.64745 C7.99434014,202.325662 1.85792053,209.762584 0.410001303,213.820132 C-1.03791793,217.87768 2.89214856,219.567367 3.85742804,217.98113 C6.97160354,212.946552 13.9009313,209.3143 19.5317283,208.87751 C20.0718252,208.670609 22.1517726,207.90048 22.4735325,207.337251 Z" id="Path" fill="#263238"></path>
                    <polygon id="Path" fill="#000000" opacity="0.2" points="134.18165 312.201301 132.515394 324.396934 122.311011 323.396915 123.965776 311.212777"></polygon>
                    <polygon id="Path" fill="#000000" opacity="0.2" points="51.1905972 207.923469 46.479114 218.555854 32.2757158 212.279873 35.8955139 202.153245"></polygon>
                    <path d="M147.523192,73.0473572 C153.349343,82.9555904 146.224661,91.3120701 140.272104,120.921825 L101.86777,121.025275 C102.488307,105.070951 102.419359,92.1741554 95.6164365,60.7827577 C95.2585396,59.2157853 95.6359214,57.5711192 96.6411206,56.3170861 C97.6463198,55.063053 99.1691896,54.3370664 100.776085,54.3457756 C103.947718,54.3457756 107.935241,54.4493047 111.991714,54.8631056 C118.389902,55.3864786 124.744404,56.3504683 131.010018,57.7482176 C134.408007,58.5680112 137.747858,59.6124716 141.007555,60.8747134 C142.98408,61.5413927 145.362804,66.9208047 147.523192,73.0473572 Z" id="Path" fill="#263238"></path>
                    <path d="M141.697041,122.921863 C141.697041,122.921863 163.266441,185.302352 162.749327,215.302919 C162.45055,232.487151 161.152019,264.510745 155.969387,287.028412 C151.740544,305.419564 134.50341,317.143923 134.50341,317.143923 L120.713703,316.327816 C120.713703,316.327816 113.244279,288.281309 114.542809,277.120179 C117.128379,254.901368 124.793158,238.211397 123.862353,217.808713 C122.391451,184.405783 112.508828,122.404612 112.508828,122.404612 L141.697041,122.921863 Z" id="Path" fill="#388CE0"></path>
                    <polygon id="Path" fill="#263238" points="117.94427 319.925585 137.422231 321.075032 139.191911 315.224347 117.427156 313.212815"></polygon>
                    <path d="M120.403435,248.947233 C120.403435,248.947233 120.403435,248.832288 120.518349,248.843782 C132.756714,249.993229 141.202909,232.372207 139.191911,208.245314 L132.699257,146.749899 L120.403435,248.947233 Z" id="Path" fill="#000000" opacity="0.2"></path>
                    <path d="M132.021263,122.404612 C132.021263,122.404612 149.166465,232.096339 113.520073,244.4414 C94.7086141,251.567972 78.8849254,243.843688 60.1424153,235.54468 C49.3060039,230.751486 35.7691083,217.77423 35.7691083,217.77423 L40.9747226,203.601548 C50.3371177,201.068981 60.1337588,200.5751 69.7032788,202.153245 C87.9746406,204.980885 88.7445659,210.199374 95.2372196,206.256771 C108.889029,172.509007 85.4005619,145.830342 101.362148,122.347139 L132.021263,122.404612 Z" id="Path" fill="#388CE0"></path>
                    <polygon id="Path" fill="#263238" points="41.9974592 200.911842 35.0336572 219.2915 40.1588316 223.211114 48.4326558 201.337138"></polygon>
                    <path d="M39.1246036,101.795027 C37.3893988,104.358294 28.5869692,102.622629 28.5869692,102.622629 L26.7138673,91.7143766 L37.5272959,96.0477918 L39.1246036,101.795027 Z" id="Path" fill="#FFB573"></path>
                    <path d="M28.8972376,91.1511476 L30.5749853,102.484695 L24.0823316,103.450231 C23.3533393,103.516631 22.6926353,103.019729 22.5539724,102.300784 L20.0603337,94.2546545 C19.9722115,93.8658071 20.2048652,93.4762617 20.5889392,93.3695803 L28.8972376,91.1511476 Z" id="Path" fill="#FFB573"></path>
                    <path d="M25.9899077,96.2891757 L29.6901458,96.9443605 L33.1950296,94.3121268 L31.8390418,93.3465913 C30.920151,92.6921345 30.2739313,91.7225479 30.023397,90.6224019 C29.7627809,89.4700746 29.6051107,88.2968509 29.5522487,87.1165886 L29.5522487,86.7257766 C29.4615013,86.0134363 28.9067866,85.4491701 28.1962608,85.3464402 L27.276947,86.0246139 C26.7023759,87.2775111 27.1160671,88.7373088 27.0471186,89.7143388 L26.8977301,91.6109264 L25.4153366,92.2546167 L25.9899077,96.2891757 Z" id="Path" fill="#FFB573"></path>
                    <path d="M97.4665555,58.6217973 L75.7247842,88.5074194 L35.7920911,96.3926259 L35.7920911,102.944474 C35.7920911,102.944474 73.3230769,105.726136 81.757781,100.817997 C90.1924851,95.9098582 104.338426,66.1391807 104.338426,66.1391807 L97.4665555,58.6217973 Z" id="Path" fill="#FFB573"></path>
                    <path d="M97.2137442,1.14944701 C88.0895548,-1.90808203 77.5059547,3.75869171 73.3345683,12.4255221 C69.163182,21.0923526 70.6225926,31.7247374 75.3225844,40.1157005 C76.7360294,42.6559784 78.4252685,45.0468282 79.5859021,47.7020507 C80.8757363,50.33421 81.1577814,53.3475772 80.3788103,56.1734752 C79.4365137,58.9206535 78.4712342,60.6793074 75.0697731,60.2425176 C75.0697731,60.2425176 75.0697731,58.3574245 76.3683039,58.5873139 L76.3683039,58.5873139 C76.3683039,58.5873139 73.6103625,60.1160784 72.5301687,59.1160595 C73.7827338,61.0471305 77.1267377,60.3459678 78.19544,58.2999521 C79.7927478,55.2539176 76.8509436,51.1274028 73.4035169,51.1618862 C69.9560901,51.1963696 67.152183,54.6906885 67.2670973,58.1275351 C67.5600823,61.6311096 69.7736545,64.682221 73.0128085,66.047225 C71.0973677,66.3629892 69.209704,65.3481009 68.4162395,63.5759139 C69.979073,67.6679452 75.0812645,69.472577 79.390548,68.6679641 C83.6998314,67.8633512 87.3426123,65.1046784 90.7210905,62.3115222 C95.3176595,58.541336 100.017651,53.7711309 99.9142285,47.8744678 C99.8108057,43.4720858 96.9839158,39.6904051 94.6051913,35.9776913 C92.2264669,32.2649775 90.1465194,27.7361562 91.6633872,23.6096415 C92.9389351,20.1038281 96.4093447,17.9888456 99.466063,15.8508742 C101.672416,14.3221097 106.154071,10.9082521 105.625465,7.678306 C105.085369,4.59778802 99.7993143,2.01153226 97.2137442,1.14944701 Z" id="Path" fill="#263238"></path>
                    <path d="M76.6555894,103.450231 L70.634084,87.5074005 L72.0130547,87.6223452 C74.2916675,87.813455 76.4713816,86.6536294 77.5863946,84.656772 C82.1829636,76.4727093 94.053603,55.7022019 97.397607,54.6676996 C102.166547,53.2538798 107.073385,57.0700438 108.889029,62.7138286 C110.256509,66.8633323 96.2484647,84.656772 89.7902853,94.7719056 C84.0560655,103.726098 76.6555894,103.450231 76.6555894,103.450231 Z" id="Path" fill="#263238"></path>
                    <path d="M17.9229292,212.578729 L17.9229292,212.705168 C18.0949826,213.154576 18.4853985,213.484348 18.9571572,213.578748 C19.2405601,213.66776 19.5498572,213.602398 19.7730482,213.406331 C20.7383277,212.521257 20.1177908,208.808543 20.0603337,208.44072 C20.0473518,208.342851 19.9733481,208.264202 19.876471,208.245314 C19.7857674,208.234076 19.6953891,208.268515 19.6351511,208.33727 C18.8537344,209.440739 17.6126607,211.406293 17.9229292,212.578729 Z M19.6926082,209.130388 C19.8994538,210.60168 19.9913852,212.578729 19.4512883,213.061497 C19.3369129,213.12492 19.1979383,213.12492 19.0835628,213.061497 C18.7695066,213.00278 18.5084492,212.785175 18.3940775,212.486773 C18.1872319,211.866072 18.6239059,210.60168 19.6926082,209.107399 L19.6926082,209.130388 Z" id="Shape" fill="#388CE0"></path>
                    <path d="M19.7040996,208.923488 C20.0028766,210.164891 21.1750017,212.279873 22.2092297,212.532751 C22.5973864,212.610882 22.9880911,212.410712 23.1515264,212.049984 C23.3337138,211.717917 23.3589755,211.322045 23.2204749,210.969503 C22.7493266,209.544189 20.0373509,208.371753 19.9224367,208.314281 C19.8471879,208.273401 19.7563656,208.273401 19.6811168,208.314281 C19.6124988,208.369637 19.5776633,208.456749 19.5891854,208.54417 C19.6174638,208.673434 19.6558876,208.800266 19.7040996,208.923488 L19.7040996,208.923488 Z M22.8297665,211.222382 C22.8771407,211.427422 22.839855,211.642907 22.7263437,211.820094 C22.5769553,212.095962 22.4275668,212.095962 22.3126525,212.072973 C21.6116758,211.935039 20.5429735,210.199374 20.1982308,208.992455 C21.0830703,209.440739 22.4965153,210.279835 22.7952923,211.153415 C22.7874058,211.175727 22.7874058,211.20007 22.7952923,211.222382 L22.8297665,211.222382 Z" id="Shape" fill="#388CE0"></path>
                    <path d="M101.729873,119.08271 L100.661171,122.818413 C100.523274,123.105774 100.856525,123.404631 101.339165,123.393136 L140.984572,123.393136 C141.363789,123.393136 141.674058,123.19773 141.697041,122.967841 L142.064766,119.232138 C142.064766,118.97926 141.765989,118.74937 141.352298,118.760865 L102.396376,118.760865 C102.132496,118.740368 101.877958,118.863281 101.729873,119.08271 Z" id="Path" fill="#388CE0"></path>
                    <path d="M101.729873,119.08271 L100.661171,122.818413 C100.523274,123.105774 100.856525,123.404631 101.339165,123.393136 L140.984572,123.393136 C141.363789,123.393136 141.674058,123.19773 141.697041,122.967841 L142.064766,119.232138 C142.064766,118.97926 141.765989,118.74937 141.352298,118.760865 L102.396376,118.760865 C102.132496,118.740368 101.877958,118.863281 101.729873,119.08271 Z" id="Path" fill="#FFFFFF" opacity="0.5"></path>
                    <path d="M109.337195,123.73797 L108.188053,123.73797 C107.969716,123.73797 107.785853,123.623025 107.808836,123.485092 L108.32595,118.622931 C108.32595,118.484997 108.544287,118.370053 108.774115,118.370053 L109.923257,118.370053 C110.141595,118.370053 110.313966,118.484997 110.302474,118.634425 L109.78536,123.485092 C109.716412,123.623025 109.509566,123.749465 109.337195,123.73797 Z" id="Path" fill="#388CE0"></path>
                    <path d="M137.916363,123.73797 L136.76722,123.73797 C136.560375,123.73797 136.376512,123.623025 136.399495,123.485092 L136.916609,118.634425 C136.916609,118.484997 137.123454,118.370053 137.341792,118.370053 L138.490934,118.370053 C138.709271,118.370053 138.893134,118.484997 138.870151,118.622931 L138.353037,123.473597 C138.330054,123.623025 138.146191,123.73797 137.916363,123.73797 Z" id="Path" fill="#388CE0"></path>
                    <path d="M124.80465,123.714981 L123.655507,123.714981 C123.43717,123.714981 123.253308,123.600037 123.27629,123.462103 L123.793404,118.611437 C123.793404,118.462008 124.011741,118.347064 124.230078,118.347064 L125.379221,118.347064 C125.597558,118.347064 125.769929,118.462008 125.758438,118.599942 L125.229832,123.450608 C125.229832,123.600037 125.034478,123.714981 124.80465,123.714981 Z" id="Path" fill="#388CE0"></path>
                    <path d="M113.784375,33.9431701 C115.002466,40.2076563 116.197574,51.5182148 111.945748,54.9205779 C111.945748,54.9205779 113.646478,61.3459867 125.011495,63.0586627 C137.560129,64.9437558 130.975543,57.7941955 130.975543,57.7941955 C124.138147,55.092995 124.310518,50.1503729 125.482644,45.5985627 L113.784375,33.9431701 Z" id="Path" fill="#FFB573"></path>
                    <path d="M111.991714,54.8631056 C118.055767,55.2476821 124.082583,56.0852821 130.021755,57.3689001 L138.617339,59.9321669 C140.145699,63.0126849 137.640568,69.3461379 130.446938,70.5530572 C130.446938,70.5530572 112.324965,73.0473572 106.981453,54.3803378 L111.991714,54.8631056 Z" id="Path" fill="#FFB573"></path>
                    <path d="M118.530333,38.7133752 L125.425186,45.6100572 C125.134622,46.677921 124.946082,47.7709695 124.862107,48.8744867 C122.242062,48.1043572 118.036202,45.2192452 117.748916,42.4605724 C117.75203,41.1713613 118.017919,39.8963237 118.530333,38.7133752 L118.530333,38.7133752 Z" id="Path" fill="#000000" opacity="0.2"></path>
                    <path d="M106.108105,26.0349747 C109.187806,35.7592963 110.268,39.9432835 116.576791,43.770942 C125.976775,49.518177 137.261352,43.6330083 137.146437,33.1960295 C137.054506,23.793553 132.055737,9.47144333 121.380206,7.9081954 C116.608811,7.19287521 111.807739,9.00274756 108.695155,12.6901112 C105.582571,16.3774749 104.603417,21.4152233 106.108105,26.0004913 L106.108105,26.0349747 Z" id="Path" fill="#FFB573"></path>
                    <path d="M129.309287,24.5177046 C130.396211,26.2244949 131.715019,27.7718945 133.227862,29.1154927 C132.511615,29.8911509 131.490034,30.3116662 130.435447,30.2649397 L129.309287,24.5177046 Z" id="Path" fill="#ED893E"></path>
                    <path d="M128.217602,35.4604401 C128.606636,35.4175911 128.99116,35.340666 129.366744,35.2305507 C129.426195,35.2168669 129.477767,35.1801025 129.510099,35.1283574 C129.542431,35.0766123 129.55287,35.0141325 129.539116,34.9546834 L129.539116,34.9546834 C129.505337,34.82925 129.378373,34.7530517 129.25183,34.7822664 C127.262678,35.3307352 125.131366,34.9043598 123.506119,33.6328194 C123.40754,33.5349247 123.248464,33.5349247 123.149885,33.6328194 C123.103559,33.678221 123.077454,33.7403634 123.077454,33.8052364 C123.077454,33.8701094 123.103559,33.9322519 123.149885,33.9776535 C124.575507,35.124947 126.398583,35.6583693 128.217602,35.4604401 Z" id="Path" fill="#263238"></path>
                    <path d="M102.764101,6.62081475 C100.194142,8.28336287 98.5915185,11.0908407 98.4663093,14.1496926 C98.4140884,14.7260945 98.5048729,15.3064797 98.730612,15.8393797 C98.9610639,16.3760544 99.4606463,16.7486488 100.040634,16.8164097 C100.913982,16.8164097 101.557502,16.0347857 102.040142,15.2991396 L104.269478,11.8507986 C105.187396,10.7306064 105.959647,9.49854014 106.567762,8.18406268 C107.314705,5.91965208 104.131581,5.74723503 102.764101,6.62081475 Z" id="Path" fill="#388CE0"></path>
                    <path d="M103.855786,8.90821429 C97.7538411,15.9658189 95.0188825,35.4949235 112.899536,40.9433023 C115.887306,38.5754415 111.060908,34.2650152 109.015435,28.8166364 C107.670939,25.2533507 114.485352,18.5980526 117.139871,15.8623687 C119.794389,13.1266848 122.242062,9.18408158 125.988266,9.81627743 C126.939201,10.1342668 127.963184,10.1622738 128.93007,9.89673872 C131.906349,8.55188572 130.458429,6.77024286 128.93007,5.5288401 C126.586188,3.79350967 123.795208,2.76456147 120.886075,2.56326682 C114.519219,1.81305696 108.180631,4.17461481 103.855786,8.90821429 Z" id="Path" fill="#263238"></path>
                    <path d="M123.701473,6.54035346 C130.883612,12.5289724 121.403189,12.6784005 116.381437,16.4715756 C111.566531,20.1153226 114.945009,26.0809526 106.797591,28.8511198 C100.144057,30.7936853 98.6042063,29.6212493 96.7655787,28.3338687 C101.451019,27.5228085 105.00337,23.6580713 105.41862,18.9198977 C105.9817,14.5519991 115.496597,-0.402306452 123.701473,6.54035346 Z" id="Path" fill="#263238"></path>
                    <path d="M105.027912,34.2075429 C106.153122,35.8288002 107.869788,36.9432783 109.808343,37.3110498 C112.382422,37.7593341 113.370684,35.4029678 112.485845,33.1040738 C111.646971,31.0350692 109.314212,28.3108798 106.820573,28.8970977 C105.035316,29.359063 103.960872,31.1794182 104.418866,32.9661401 C104.536,33.4168306 104.74318,33.839121 105.027912,34.2075429 L105.027912,34.2075429 Z" id="Path" fill="#FFB573"></path>
                    <path d="M122.471891,7.14956038 C123.862353,10.6898572 127.872859,10.2185839 130.837646,13.9198032 C132.664783,16.2186973 136.250106,9.12660923 131.366252,6.333453 C126.482397,3.54029678 120.288521,1.60922581 122.471891,7.14956038 Z" id="Path" fill="#263238"></path>
                    <path d="M118.243047,22.0923715 C118.452849,22.1149289 118.652978,21.9985438 118.737179,21.8050097 C119.679475,19.7130161 122.506365,19.1842705 122.529348,19.1842705 C122.791396,19.1267207 122.962883,18.8744664 122.920056,18.609547 C122.867999,18.3501244 122.616876,18.1809558 122.356977,18.2302295 C122.207588,18.2302295 118.98999,18.9084032 117.840848,21.4371867 C117.734511,21.6817343 117.841295,21.9665673 118.082167,22.080877 L118.243047,22.080877 L118.243047,22.0923715 Z" id="Path" fill="#263238"></path>
                    <path d="M133.181897,17.8624065 C133.353295,17.8748326 133.517309,17.7905871 133.607079,17.6440115 C133.681031,17.5395743 133.70934,17.4095441 133.685499,17.2838053 C133.661658,17.1580665 133.587719,17.0474334 133.480674,16.9773323 L133.480674,16.9773323 C132.189114,16.0823156 130.542837,15.872188 129.067967,16.4141032 C128.945736,16.4618989 128.848974,16.5585243 128.800986,16.6807077 C128.752998,16.8028911 128.758134,16.9395583 128.815156,17.0577936 C128.920414,17.3016455 129.202834,17.4146432 129.447184,17.3106719 L129.447184,17.3106719 C130.606843,16.9053164 131.890826,17.0851218 132.894611,17.7934396 C132.984266,17.836922 133.082278,17.860451 133.181897,17.8624065 L133.181897,17.8624065 Z" id="Path" fill="#263238"></path>
                    <path d="M180.423134,80.7831356 L173.689161,84.6107941 L166.690885,99.6685499 C166.690885,99.6685499 173.447841,103.967482 178.779861,100.484657 C184.111881,97.0018328 180.423134,80.7831356 180.423134,80.7831356 Z" id="Path" fill="#388CE0"></path>
                    <path d="M180.423134,80.7831356 L173.689161,84.6107941 L166.690885,99.6685499 C166.690885,99.6685499 173.447841,103.967482 178.779861,100.484657 C184.111881,97.0018328 180.423134,80.7831356 180.423134,80.7831356 Z" id="Path" fill="#FFFFFF" opacity="0.5"></path>
                    <path d="M62.6705283,85.4383959 L70.634084,87.73729 L78.1839486,103.358275 C78.1839486,103.358275 72.1164775,108.979071 65.5433839,103.611153 C60.6250551,99.5421107 62.6705283,85.4383959 62.6705283,85.4383959 Z" id="Path" fill="#388CE0"></path>
                    <g id="Group" opacity="0.5" transform="translate(62.222363, 85.059078)" fill="#FFFFFF">
                        <path d="M0.448165476,0.379317512 L8.41172125,2.67821152 L15.9615858,18.2991963 C15.9615858,18.2991963 9.89411475,23.9199922 3.32102109,18.5520747 C-1.59730772,14.4830323 0.448165476,0.379317512 0.448165476,0.379317512 Z" id="Path"></path>
                    </g>
                    <path d="M132.72224,21.7590318 C133.273828,21.6555816 133.871382,22.276283 133.997788,23.1268738 C134.124193,23.9774645 133.813925,24.7590885 133.262337,24.8510443 C132.710748,24.943 132.113194,24.3337931 131.986789,23.4832023 C131.860383,22.6326115 132.170651,21.8394931 132.72224,21.7590318 Z" id="Path" fill="#263238"></path>
                    <path d="M134.42297,20.9199355 L132.48092,21.8739765 C133.653045,22.7015784 134.42297,20.9199355 134.42297,20.9199355 Z" id="Path" fill="#263238"></path>
                    <path d="M123.126902,23.7360807 C123.67849,23.6326304 124.276044,24.2533318 124.40245,25.1039226 C124.528855,25.9545134 124.218587,26.7361374 123.666999,26.8280931 C123.11541,26.9200489 122.517857,26.310842 122.391451,25.4602512 C122.265045,24.6096604 122.552331,23.8395309 123.126902,23.7360807 Z" id="Path" fill="#263238"></path>
                    <path d="M124.80465,22.8969844 L122.862599,23.8510254 C124.034724,24.6786272 124.80465,22.8969844 124.80465,22.8969844 Z" id="Path" fill="#263238"></path>
                    <path d="M74.4722191,67.7140614 C73.3901842,67.7201317 72.3171407,67.5171751 71.312078,67.1162107 C67.749737,65.656413 66.0949722,61.9551936 66.715509,56.9436047 C66.7572068,56.6296249 67.0450085,56.4085757 67.3590286,56.4493425 C67.5111385,56.4663789 67.6497604,56.5446203 67.7429782,56.6660524 C67.8361959,56.7874845 67.8759761,56.9416424 67.8531598,57.0930328 C67.2556058,61.5413927 68.6575594,64.8058222 71.7027863,66.047225 C75.328482,67.288678 79.3410356,66.0544325 81.6428668,62.9896959 C84.5272138,59.1505429 83.5849172,53.7021641 79.091771,48.0468848 C67.3245544,33.2764908 68.1059711,25.4257678 69.7722274,19.2187539 C72.1854261,10.2070894 79.2526509,-0.114944701 99.247726,1.87359862 C99.5650529,1.90533972 99.7965727,2.18838345 99.76484,2.50579447 C99.7331073,2.8232055 99.4501386,3.05478673 99.1328118,3.02304563 C79.9536277,1.1149636 73.1736884,10.95423 70.8754039,19.5291046 C69.2206391,25.7361185 68.5771194,32.9891291 79.9881019,47.3457222 C86.8829554,56.0010581 84.0905398,61.6678319 82.5621806,63.6908586 C80.6246363,66.2014254 77.6428345,67.6842484 74.4722191,67.7140614 L74.4722191,67.7140614 Z" id="Path" fill="#263238"></path>
                </g>
            </g>
        </g>
    </g>
</svg>