<svg xmlns="http://www.w3.org/2000/svg" width="322.048" height="328.044" viewBox="0 0 322.048 328.044"><defs><style>.a{fill:#ffe9bc;}.b{fill:#3d9ae2;}.c{fill:#ffda44;}.d,.p{fill:none;}.d{stroke:#ccaf36;stroke-width:0.5px;}.e{fill:#3ce97b;}.f{fill:#2ee671;}.g{fill:#57565c;}.h{fill:#d80027;}.i{fill:#e0e0e2;}.j{fill:#fff;}.k{opacity:0.17;}.l{opacity:0.2;}.m{fill:#0070c7;}.n{fill:#ff9811;}.o{stroke:none;}</style></defs><g transform="translate(8.665 -17.676)"><g transform="matrix(0.454, 0.891, -0.891, 0.454, 224.153, 5.652)"><path class="a" d="M116.691,0C179.932,0,291.533,71.193,231.2,117.405S179.932,234.811,116.691,234.811,17.332,200.312,2.183,117.405,53.45,0,116.691,0Z" transform="translate(0 26.487)"/><g transform="translate(52.881 69.322) rotate(-154)"><ellipse class="a" cx="18.312" cy="18.312" rx="18.312" ry="18.312" transform="translate(0 20.021)"/><ellipse class="a" cx="5.372" cy="5.372" rx="5.372" ry="5.372" transform="translate(31.252 12.696)"/><circle class="a" cx="9.034" cy="9.034" r="9.034" transform="translate(13.185 0)"/></g><g transform="translate(188.936 179.328) rotate(48)"><ellipse class="a" cx="18.312" cy="18.312" rx="18.312" ry="18.312" transform="translate(0 20.021)"/><ellipse class="a" cx="5.372" cy="5.372" rx="5.372" ry="5.372" transform="translate(31.252 12.696)"/><ellipse class="a" cx="9.034" cy="9.034" rx="9.034" ry="9.034" transform="translate(13.185 0)"/></g></g><g transform="translate(82.753 100.253)"><g transform="translate(0 0)"><g transform="translate(0 0)"><path class="b" d="M148.291,64v91.5a5.511,5.511,0,0,1-5.512,5.512H21.512A5.511,5.511,0,0,1,16,155.5V64Z" transform="translate(-16 -50.771)"/><g transform="translate(11.024 26.458)"><path class="c" d="M56,112h44.1v41.892H56Z" transform="translate(-56 -112)"/><path class="c" d="M248,112h15.434v15.434H248Z" transform="translate(-195.083 -112)"/><path class="c" d="M328,112h15.434v15.434H328Z" transform="translate(-253.035 -112)"/><path class="c" d="M408,112h15.434v15.434H408Z" transform="translate(-310.986 -112)"/><g class="d" transform="translate(13.224 29.16)"><circle class="o" cx="2.5" cy="2.5" r="2.5"/><circle class="p" cx="2.5" cy="2.5" r="2.25"/></g><g class="d" transform="translate(26.224 29.16)"><circle class="o" cx="2.5" cy="2.5" r="2.5"/><circle class="p" cx="2.5" cy="2.5" r="2.25"/></g></g><path class="e" d="M24.236,0A24.236,24.236,0,1,1,0,24.236,24.236,24.236,0,0,1,24.236,0Z" transform="translate(11.086 83.793)"/><path class="f" d="M17.981,0A17.981,17.981,0,1,1,0,17.981,17.981,17.981,0,0,1,17.981,0Z" transform="translate(17.34 90.048)"/><path class="g" d="M148.291,21.512v7.717H16V21.512A5.51,5.51,0,0,1,21.512,16H142.779A5.51,5.51,0,0,1,148.291,21.512Z" transform="translate(-16 -16)"/><g transform="translate(19.844 35.278)"><path class="h" d="M121.363,173.229H104V160h19.568Z" transform="translate(-99.59 -155.59)"/><path class="i" d="M88,144h4.41v4.41" transform="translate(-88 -144)"/></g></g><g transform="translate(4.41 4.41)"><path class="j" d="M91.844,336a19.844,19.844,0,1,0,19.844,19.844A19.844,19.844,0,0,0,91.844,336Zm0,35.278a15.434,15.434,0,1,1,15.434-15.434A15.434,15.434,0,0,1,91.844,371.278Z" transform="translate(-60.976 -252.216)"/><path class="j" d="M34.2,36.41h2.2a2.2,2.2,0,0,0,0-4.41H34.2a2.2,2.2,0,1,0,0,4.41Z" transform="translate(-32 -32)"/><path class="j" d="M66.2,36.41h2.2a2.2,2.2,0,0,0,0-4.41H66.2a2.2,2.2,0,1,0,0,4.41Z" transform="translate(-55.181 -32)"/><path class="j" d="M98.2,36.41h2.2a2.2,2.2,0,0,0,0-4.41H98.2a2.2,2.2,0,1,0,0,4.41Z" transform="translate(-78.361 -32)"/><path class="k" d="M94.3,104H50.2a2.2,2.2,0,0,0-2.2,2.2V148.1a2.2,2.2,0,0,0,2.2,2.2H94.3a2.2,2.2,0,0,0,2.2-2.2V106.2A2.2,2.2,0,0,0,94.3,104Zm-2.2,41.892H52.41V108.41H92.1Z" transform="translate(-43.59 -84.156)"/><path class="l" d="M107.864,141.19a2.207,2.207,0,0,0-1.681-.78H88.819v-2.2a2.2,2.2,0,0,0-2.2-2.2H82.2a2.2,2.2,0,0,0,0,4.41h2.2v15.434a2.2,2.2,0,0,0,2.2,2.2h17.363a2.2,2.2,0,0,0,2.174-1.841l2.2-13.229A2.2,2.2,0,0,0,107.864,141.19Zm-5.755,12.449H88.819v-8.819h14.762Z" transform="translate(-66.771 -107.337)"/><path class="k" d="M242.2,123.844h15.434a2.2,2.2,0,0,0,2.2-2.2V106.2a2.2,2.2,0,0,0-2.2-2.2H242.2a2.2,2.2,0,0,0-2.2,2.2v15.434A2.2,2.2,0,0,0,242.2,123.844Zm2.2-15.434h11.024v11.024H244.41Z" transform="translate(-182.674 -84.156)"/><path class="k" d="M322.2,123.844h15.434a2.2,2.2,0,0,0,2.2-2.2V106.2a2.2,2.2,0,0,0-2.2-2.2H322.2a2.2,2.2,0,0,0-2.2,2.2v15.434A2.2,2.2,0,0,0,322.2,123.844Zm2.2-15.434h11.024v11.024H324.41Z" transform="translate(-240.625 -84.156)"/><path class="k" d="M417.639,104H402.2a2.2,2.2,0,0,0-2.2,2.2v15.434a2.2,2.2,0,0,0,2.2,2.2h15.434a2.2,2.2,0,0,0,2.2-2.2V106.2A2.2,2.2,0,0,0,417.639,104Zm-2.2,15.434H404.41V108.41h11.024Z" transform="translate(-298.577 -84.156)"/><path class="l" d="M301.736,192H242.2a2.2,2.2,0,0,0,0,4.41h59.531a2.2,2.2,0,0,0,0-4.41Z" transform="translate(-182.674 -147.903)"/><path class="l" d="M301.736,224H242.2a2.2,2.2,0,0,0,0,4.41h59.531a2.2,2.2,0,0,0,0-4.41Z" transform="translate(-182.674 -171.084)"/><path class="l" d="M284.1,256H242.2a2.2,2.2,0,0,0,0,4.41H284.1a2.2,2.2,0,0,0,0-4.41Z" transform="translate(-182.674 -194.264)"/><path class="l" d="M420.41,256h-2.2a2.2,2.2,0,0,0,0,4.41h2.2a2.2,2.2,0,1,0,0-4.41Z" transform="translate(-310.167 -194.264)"/></g></g><g transform="translate(66.426 84.672)"><g transform="translate(0 0)"><path class="m" d="M117.923,52.469v17.3a2.337,2.337,0,0,1-2.338,2.338H90.338A2.337,2.337,0,0,1,88,69.769V18.338A2.337,2.337,0,0,1,90.338,16h25.248a2.337,2.337,0,0,1,2.338,2.338v17.3" transform="translate(-88 -16)"/><path class="i" d="M120,136h8.416v28.053H120Z" transform="translate(-116.26 -121.973)"/><path class="g" d="M178.286,19.74h-9.351L168,16h11.221Z" transform="translate(-158.649 -16)"/><rect class="n" width="24.236" height="17.2" rx="2" transform="translate(14.701 19.392)"/><g transform="translate(6.546 17.767)"><path class="g" d="M216,216h24.2v3.74H216Z" transform="translate(-207.853 -210.389)"/><path class="g" d="M144,168h2.805v20.572H144Z" transform="translate(-144 -168)"/></g></g><g transform="translate(2.805 13.091)"><path d="M233.87,296h-.935a.935.935,0,0,0,0,1.87h.935a.935.935,0,0,0,0-1.87Z" transform="translate(-217.973 -276.363)"/><path d="M353.87,296h-.935a.935.935,0,0,0,0,1.87h.935a.935.935,0,0,0,0-1.87Z" transform="translate(-323.947 -276.363)"/><path d="M385.87,296h-.935a.935.935,0,0,0,0,1.87h.935a.935.935,0,0,0,0-1.87Z" transform="translate(-352.206 -276.363)"/><path class="k" d="M136.935,182.443h2.805a.935.935,0,0,0,.935-.935V160.935a.935.935,0,0,0-.935-.935h-2.805a.935.935,0,0,0-.935.935v20.572A.935.935,0,0,0,136.935,182.443Zm.935-20.572h.935v18.7h-.935Z" transform="translate(-133.195 -156.26)"/><path class="k" d="M121.351,128h-8.416a.935.935,0,0,0-.935.935v28.053a.935.935,0,0,0,.935.935h8.416a.935.935,0,0,0,.935-.935V128.935A.935.935,0,0,0,121.351,128Zm-.935,28.053H113.87V129.87h6.546Z" transform="translate(-112 -128)"/><path d="M117.611,464h-4.676a.935.935,0,0,0,0,1.87h4.676a.935.935,0,0,0,0-1.87Z" transform="translate(-112 -424.726)"/><path d="M177.87,464h-.935a.935.935,0,0,0,0,1.87h.935a.935.935,0,0,0,0-1.87Z" transform="translate(-168.519 -424.726)"/></g></g></g></g></svg>